TITLE ""
FILE "Step4_Track12.mp3" MP3
  TRACK 01 AUDIO
    TITLE "Step4_Track12_01"
    INDEX 01 00:00:00
  TRACK 02 AUDIO
    TITLE "Step4_Track12_02"
    INDEX 01 00:00:24
  TRACK 03 AUDIO
    TITLE "Step4_Track12_03"
    INDEX 01 00:01:47
  TRACK 04 AUDIO
    TITLE "Step4_Track12_04"
    INDEX 01 00:02:33
  TRACK 05 AUDIO
    TITLE "Step4_Track12_05"
    INDEX 01 00:03:30
  TRACK 06 AUDIO
    TITLE "Step4_Track12_06"
    INDEX 01 00:03:40
  TRACK 07 AUDIO
    TITLE "Step4_Track12_07"
    INDEX 01 00:05:21
  TRACK 08 AUDIO
    TITLE "Step4_Track12_08"
    INDEX 01 00:05:47
  TRACK 09 AUDIO
    TITLE "Step4_Track12_09"
    INDEX 01 00:06:44
  TRACK 10 AUDIO
    TITLE "Step4_Track12_10"
    INDEX 01 00:06:62
  TRACK 11 AUDIO
    TITLE "Step4_Track12_11"
    INDEX 01 00:08:04
  TRACK 12 AUDIO
    TITLE "Step4_Track12_12"
    INDEX 01 00:08:37
  TRACK 13 AUDIO
    TITLE "Step4_Track12_13"
    INDEX 01 00:09:33
  TRACK 14 AUDIO
    TITLE "Step4_Track12_14"
    INDEX 01 00:09:35
  TRACK 15 AUDIO
    TITLE "Step4_Track12_15"
    INDEX 01 00:11:30
  TRACK 16 AUDIO
    TITLE "Step4_Track12_16"
    INDEX 01 00:11:41
  TRACK 17 AUDIO
    TITLE "Step4_Track12_17"
    INDEX 01 00:12:37
  TRACK 18 AUDIO
    TITLE "Step4_Track12_18"
    INDEX 01 00:12:55
  TRACK 19 AUDIO
    TITLE "Step4_Track12_19"
    INDEX 01 00:14:57
  TRACK 20 AUDIO
    TITLE "Step4_Track12_20"
    INDEX 01 00:14:63
  TRACK 21 AUDIO
    TITLE "Step4_Track12_21"
    INDEX 01 00:15:69
  TRACK 22 AUDIO
    TITLE "Step4_Track12_22"
    INDEX 01 00:16:11
  TRACK 23 AUDIO
    TITLE "Step4_Track12_23"
    INDEX 01 00:17:73
  TRACK 24 AUDIO
    TITLE "Step4_Track12_24"
    INDEX 01 00:18:08
  TRACK 25 AUDIO
    TITLE "Step4_Track12_25"
    INDEX 01 00:19:10
  TRACK 26 AUDIO
    TITLE "Step4_Track12_26"
    INDEX 01 00:19:21
  TRACK 27 AUDIO
    TITLE "Step4_Track12_27"
    INDEX 01 00:20:60
  TRACK 28 AUDIO
    TITLE "Step4_Track12_28"
    INDEX 01 00:21:07
  TRACK 29 AUDIO
    TITLE "Step4_Track12_29"
    INDEX 01 00:22:10
  TRACK 30 AUDIO
    TITLE "Step4_Track12_30"
    INDEX 01 00:22:16
  TRACK 31 AUDIO
    TITLE "Step4_Track12_31"
    INDEX 01 00:24:15
  TRACK 32 AUDIO
    TITLE "Step4_Track12_32"
    INDEX 01 00:24:34
  TRACK 33 AUDIO
    TITLE "Step4_Track12_33"
    INDEX 01 00:25:24
  TRACK 34 AUDIO
    TITLE "Step4_Track12_34"
    INDEX 01 00:25:38
  TRACK 35 AUDIO
    TITLE "Step4_Track12_35"
    INDEX 01 00:27:37
  TRACK 36 AUDIO
    TITLE "Step4_Track12_36"
    INDEX 01 00:27:46
  TRACK 37 AUDIO
    TITLE "Step4_Track12_37"
    INDEX 01 00:28:52
  TRACK 38 AUDIO
    TITLE "Step4_Track12_38"
    INDEX 01 00:28:60
  TRACK 39 AUDIO
    TITLE "Step4_Track12_39"
    INDEX 01 00:30:56
  TRACK 40 AUDIO
    TITLE "Step4_Track12_40"
    INDEX 01 00:30:66
  TRACK 41 AUDIO
    TITLE "Step4_Track12_41"
    INDEX 01 00:31:62
  TRACK 42 AUDIO
    TITLE "Step4_Track12_42"
    INDEX 01 00:32:06
  TRACK 43 AUDIO
    TITLE "Step4_Track12_43"
    INDEX 01 00:34:19
